<svg width="55" height="55" viewBox="0 0 55 55" fill="none" xmlns="http://www.w3.org/2000/svg">
<path fill-rule="evenodd" clip-rule="evenodd" d="M55 27.5C55 42.6878 42.6878 55 27.5 55C12.3122 55 0 42.6878 0 27.5C0 12.3122 12.3122 0 27.5 0C42.6878 0 55 12.3122 55 27.5ZM37.74 30.56L35.22 29.56C34.8577 29.4158 34.4612 29.3806 34.0793 29.4588C33.6973 29.5369 33.3465 29.7251 33.07 30L31 32.06C29.028 31.8481 27.1646 31.0505 25.65 29.77L41 14.41L39.59 13L13 39.59L14.41 41L22.34 33.08C25.58 36.2 30.23 38.58 36.89 39C37.1618 39.015 37.4337 38.9743 37.6892 38.8805C37.9447 38.7867 38.1783 38.6418 38.3759 38.4546C38.5734 38.2673 38.7306 38.0418 38.838 37.7917C38.9453 37.5415 39.0004 37.2722 39 37V32.41C38.9984 32.0111 38.8776 31.6219 38.653 31.2922C38.4285 30.9626 38.1105 30.7076 37.74 30.56ZM22.6699 25.67L19.1499 29.19C16.9013 25.5546 15.4842 21.4671 14.9999 17.22C14.9689 16.9395 14.9976 16.6555 15.0841 16.3869C15.1706 16.1183 15.313 15.871 15.5019 15.6613C15.6908 15.4516 15.9219 15.2843 16.1801 15.1703C16.4383 15.0563 16.7177 14.9983 16.9999 15H21.4999C21.9005 14.9996 22.2919 15.1195 22.6236 15.3441C22.9552 15.5688 23.2117 15.8878 23.3599 16.26L24.3599 18.78C24.5041 19.1422 24.5393 19.5387 24.4612 19.9207C24.383 20.3027 24.1949 20.6535 23.9199 20.93L21.8499 23C22.0155 23.9196 22.2908 24.816 22.6699 25.67Z" fill="white"/>
</svg>
