<svg width="34" height="37" viewBox="0 0 34 37" fill="none" xmlns="http://www.w3.org/2000/svg">
<path d="M30.2222 21.4341V14.8C30.2222 8.84855 26.095 3.83505 20.5039 2.3273C19.9504 0.962 18.598 0 17 0C15.402 0 14.0496 0.962 13.4961 2.3273C7.905 3.8369 3.77778 8.84855 3.77778 14.8V21.4341L0.553446 24.592C0.377699 24.7636 0.238322 24.9674 0.143339 25.1919C0.0483558 25.4164 -0.000357848 25.657 1.97894e-06 25.9V29.6C1.97894e-06 30.0906 0.199009 30.5612 0.553245 30.9081C0.90748 31.2551 1.38793 31.45 1.88889 31.45H32.1111C32.6121 31.45 33.0925 31.2551 33.4468 30.9081C33.801 30.5612 34 30.0906 34 29.6V25.9C34.0004 25.657 33.9516 25.4164 33.8567 25.1919C33.7617 24.9674 33.6223 24.7636 33.4466 24.592L30.2222 21.4341ZM30.2222 27.75H3.77778V26.6659L7.00211 23.5079C7.17786 23.3364 7.31724 23.1326 7.41222 22.9081C7.5072 22.6836 7.55592 22.443 7.55556 22.2V14.8C7.55556 9.69955 11.7923 5.55 17 5.55C22.2077 5.55 26.4444 9.69955 26.4444 14.8V22.2C26.4444 22.6921 26.6428 23.162 26.9979 23.5079L30.2222 26.6659V27.75ZM17 37C18.1698 37.0014 19.311 36.6459 20.2649 35.9828C21.2189 35.3197 21.9382 34.382 22.3229 33.3H11.6771C12.0618 34.382 12.7811 35.3197 13.7351 35.9828C14.689 36.6459 15.8302 37.0014 17 37Z" fill="white"/>
</svg>
