<svg width="24" height="16" viewBox="0 0 24 16" fill="none" xmlns="http://www.w3.org/2000/svg">
<path d="M11.178 13.046C11.2697 13.1348 11.3925 13.2074 11.5357 13.2576C11.6789 13.3078 11.8382 13.334 12 13.334C12.1618 13.334 12.3211 13.3078 12.4643 13.2576C12.6075 13.2074 12.7303 13.1348 12.822 13.046L21.822 4.37931C21.9262 4.27935 21.9873 4.16227 21.9986 4.04078C22.01 3.9193 21.9712 3.79806 21.8865 3.69024C21.8018 3.58242 21.6743 3.49215 21.518 3.42922C21.3617 3.36629 21.1826 3.33312 21 3.33331H3C2.81784 3.33382 2.63934 3.36741 2.48368 3.43049C2.32802 3.49357 2.2011 3.58374 2.11657 3.69131C2.03203 3.79888 1.99308 3.91978 2.00391 4.041C2.01473 4.16223 2.07492 4.27919 2.178 4.37931L11.178 13.046Z" fill="white"/>
</svg>
