<svg width="39" height="39" viewBox="0 0 39 39" fill="none" xmlns="http://www.w3.org/2000/svg">
<path d="M18.3574 5.78906H20.6426C20.8457 5.78906 20.9473 5.89062 20.9473 6.09375V32.9062C20.9473 33.1094 20.8457 33.2109 20.6426 33.2109H18.3574C18.1543 33.2109 18.0527 33.1094 18.0527 32.9062V6.09375C18.0527 5.89062 18.1543 5.78906 18.3574 5.78906Z" fill="white"/>
<path d="M6.70312 18.0527H32.2969C32.5 18.0527 32.6016 18.1543 32.6016 18.3574V20.6426C32.6016 20.8457 32.5 20.9473 32.2969 20.9473H6.70312C6.5 20.9473 6.39844 20.8457 6.39844 20.6426V18.3574C6.39844 18.1543 6.5 18.0527 6.70312 18.0527Z" fill="white"/>
</svg>
